<svg width="395" height="51" viewBox="0 0 395 51" fill="none" xmlns="http://www.w3.org/2000/svg">
<path fill-rule="evenodd" clip-rule="evenodd" d="M8.27731 30.7945V0L5.89234 6.10352e-06C2.63809 6.10352e-06 0 2.6381 0 5.89235V31.496C0 42.0723 8.5738 50.6461 19.1501 50.6461C29.7264 50.6461 38.3002 42.0723 38.3002 31.496V19.0248C47.5806 17.6871 54.7146 9.64748 54.7146 6.10352e-06H32.4112H32.4079L30.0229 0V30.7945C30.0229 36.7994 25.155 41.6673 19.1501 41.6673C13.1452 41.6673 8.27731 36.7994 8.27731 30.7945ZM23.9902 0H14.3099V31.3557C14.3099 34.0288 16.4769 36.1958 19.1501 36.1958C21.8232 36.1958 23.9902 34.0288 23.9902 31.3557V0Z" fill="#219EBC"/>
<path d="M79.7024 37.2315C78.0046 37.2315 76.4831 36.9559 75.1381 36.4046C73.793 35.8534 72.7126 35.0375 71.8967 33.9571C71.1029 32.8766 70.684 31.5757 70.6399 30.0542H76.6595C76.7477 30.9142 77.0454 31.5757 77.5526 32.0387C78.0597 32.4797 78.7212 32.7002 79.5371 32.7002C80.375 32.7002 81.0365 32.5128 81.5216 32.138C82.0067 31.7411 82.2492 31.2008 82.2492 30.5173C82.2492 29.944 82.0508 29.4699 81.6539 29.0951C81.279 28.7202 80.8049 28.4115 80.2316 28.169C79.6804 27.9264 78.8866 27.6508 77.8502 27.3421C76.3508 26.879 75.1271 26.416 74.1789 25.9529C73.2308 25.4899 72.4149 24.8063 71.7314 23.9023C71.0478 22.9982 70.706 21.8186 70.706 20.3633C70.706 18.2024 71.4888 16.5155 73.0544 15.3028C74.6199 14.068 76.6595 13.4506 79.1732 13.4506C81.731 13.4506 83.7927 14.068 85.3583 15.3028C86.9238 16.5155 87.7617 18.2134 87.872 20.3963H81.7531C81.709 19.6466 81.4334 19.0623 80.9262 18.6434C80.4191 18.2024 79.7686 17.9819 78.9748 17.9819C78.2912 17.9819 77.74 18.1693 77.321 18.5441C76.9021 18.8969 76.6926 19.4151 76.6926 20.0987C76.6926 20.8484 77.0454 21.4327 77.751 21.8516C78.4566 22.2706 79.5591 22.7226 81.0585 23.2077C82.5579 23.7149 83.7707 24.2 84.6968 24.663C85.6449 25.1261 86.4608 25.7986 87.1443 26.6806C87.8279 27.5626 88.1696 28.6982 88.1696 30.0873C88.1696 31.4103 87.8279 32.612 87.1443 33.6925C86.4828 34.7729 85.5126 35.6329 84.2337 36.2723C82.9548 36.9118 81.4444 37.2315 79.7024 37.2315ZM109.048 27.4744C109.048 28.0036 109.015 28.5548 108.948 29.1281H96.1485C96.2367 30.2747 96.6005 31.1567 97.2399 31.7741C97.9014 32.3695 98.7063 32.6672 99.6544 32.6672C101.066 32.6672 102.047 32.0718 102.598 30.8811H108.618C108.309 32.0939 107.747 33.1853 106.931 34.1555C106.137 35.1257 105.134 35.8865 103.921 36.4377C102.708 36.989 101.352 37.2646 99.8529 37.2646C98.0448 37.2646 96.4351 36.8787 95.0239 36.107C93.6127 35.3352 92.5102 34.2327 91.7164 32.7995C90.9226 31.3662 90.5257 29.6904 90.5257 27.7721C90.5257 25.8537 90.9116 24.1779 91.6833 22.7447C92.4771 21.3114 93.5796 20.2089 94.9908 19.4372C96.402 18.6654 98.0227 18.2795 99.8529 18.2795C101.639 18.2795 103.227 18.6544 104.616 19.4041C106.005 20.1538 107.085 21.2232 107.857 22.6124C108.651 24.0015 109.048 25.6222 109.048 27.4744ZM103.26 25.986C103.26 25.0158 102.929 24.2441 102.267 23.6708C101.606 23.0975 100.779 22.8108 99.7867 22.8108C98.8386 22.8108 98.0337 23.0864 97.3722 23.6377C96.7328 24.1889 96.3359 24.9717 96.1815 25.986H103.26ZM117.687 21.1571C118.239 20.2971 118.999 19.6025 119.969 19.0733C120.94 18.5441 122.075 18.2795 123.376 18.2795C124.898 18.2795 126.276 18.6654 127.511 19.4372C128.745 20.2089 129.716 21.3114 130.421 22.7447C131.149 24.1779 131.513 25.8427 131.513 27.739C131.513 29.6353 131.149 31.3111 130.421 32.7664C129.716 34.1996 128.745 35.3132 127.511 36.107C126.276 36.8787 124.898 37.2646 123.376 37.2646C122.097 37.2646 120.962 37 119.969 36.4708C118.999 35.9416 118.239 35.258 117.687 34.4201V45.798H112.031V18.5441H117.687V21.1571ZM125.758 27.739C125.758 26.3278 125.361 25.2253 124.567 24.4315C123.795 23.6156 122.836 23.2077 121.689 23.2077C120.565 23.2077 119.606 23.6156 118.812 24.4315C118.04 25.2473 117.654 26.3609 117.654 27.7721C117.654 29.1833 118.04 30.2968 118.812 31.1126C119.606 31.9285 120.565 32.3364 121.689 32.3364C122.814 32.3364 123.773 31.9285 124.567 31.1126C125.361 30.2747 125.758 29.1502 125.758 27.739ZM141.988 37.2646C140.378 37.2646 138.945 36.989 137.688 36.4377C136.431 35.8865 135.439 35.1368 134.711 34.1886C133.984 33.2184 133.576 32.138 133.488 30.9473H139.077C139.143 31.5867 139.441 32.1049 139.97 32.5018C140.499 32.8987 141.15 33.0971 141.922 33.0971C142.627 33.0971 143.168 32.9648 143.542 32.7002C143.939 32.4136 144.138 32.0498 144.138 31.6088C144.138 31.0796 143.862 30.6937 143.311 30.4511C142.76 30.1865 141.867 29.8999 140.632 29.5912C139.309 29.2825 138.206 28.9628 137.324 28.632C136.442 28.2792 135.682 27.739 135.042 27.0113C134.403 26.2616 134.083 25.2584 134.083 24.0015C134.083 22.9431 134.37 21.9839 134.943 21.124C135.538 20.242 136.398 19.5474 137.523 19.0403C138.669 18.5331 140.025 18.2795 141.591 18.2795C143.906 18.2795 145.725 18.8528 147.048 19.9994C148.393 21.146 149.165 22.6675 149.364 24.5638H144.138C144.05 23.9243 143.763 23.4172 143.278 23.0423C142.815 22.6675 142.197 22.4801 141.426 22.4801C140.764 22.4801 140.257 22.6124 139.904 22.877C139.551 23.1195 139.375 23.4613 139.375 23.9023C139.375 24.4315 139.651 24.8284 140.202 25.093C140.775 25.3576 141.657 25.6222 142.848 25.8868C144.215 26.2396 145.328 26.5924 146.188 26.9452C147.048 27.2759 147.798 27.8272 148.437 28.5989C149.099 29.3486 149.441 30.3629 149.463 31.6418C149.463 32.7223 149.154 33.6925 148.537 34.5524C147.941 35.3903 147.07 36.0518 145.924 36.5369C144.799 37.0221 143.487 37.2646 141.988 37.2646ZM151.798 27.739C151.798 25.8427 152.151 24.1779 152.857 22.7447C153.584 21.3114 154.566 20.2089 155.801 19.4372C157.035 18.6654 158.413 18.2795 159.935 18.2795C161.236 18.2795 162.371 18.5441 163.342 19.0733C164.334 19.6025 165.095 20.2971 165.624 21.1571V18.5441H171.28V37H165.624V34.3871C165.073 35.247 164.301 35.9416 163.309 36.4708C162.338 37 161.203 37.2646 159.902 37.2646C158.402 37.2646 157.035 36.8787 155.801 36.107C154.566 35.3132 153.584 34.1996 152.857 32.7664C152.151 31.3111 151.798 29.6353 151.798 27.739ZM165.624 27.7721C165.624 26.3609 165.227 25.2473 164.433 24.4315C163.661 23.6156 162.713 23.2077 161.589 23.2077C160.464 23.2077 159.505 23.6156 158.711 24.4315C157.939 25.2253 157.553 26.3278 157.553 27.739C157.553 29.1502 157.939 30.2747 158.711 31.1126C159.505 31.9285 160.464 32.3364 161.589 32.3364C162.713 32.3364 163.661 31.9285 164.433 31.1126C165.227 30.2968 165.624 29.1833 165.624 27.7721ZM186.617 18.3457C188.778 18.3457 190.498 19.0513 191.777 20.4625C193.078 21.8516 193.728 23.77 193.728 26.2175V37H188.105V26.9783C188.105 25.7435 187.786 24.7843 187.146 24.1007C186.507 23.4172 185.647 23.0754 184.566 23.0754C183.486 23.0754 182.626 23.4172 181.986 24.1007C181.347 24.7843 181.027 25.7435 181.027 26.9783V37H175.371V18.5441H181.027V20.9917C181.6 20.1758 182.372 19.5364 183.342 19.0733C184.313 18.5882 185.404 18.3457 186.617 18.3457ZM196.534 27.739C196.534 25.8427 196.886 24.1779 197.592 22.7447C198.32 21.3114 199.301 20.2089 200.536 19.4372C201.771 18.6654 203.149 18.2795 204.67 18.2795C205.971 18.2795 207.107 18.5441 208.077 19.0733C209.069 19.6025 209.83 20.2971 210.359 21.1571V18.5441H216.015V37H210.359V34.3871C209.808 35.247 209.036 35.9416 208.044 36.4708C207.074 37 205.938 37.2646 204.637 37.2646C203.138 37.2646 201.771 36.8787 200.536 36.107C199.301 35.3132 198.32 34.1996 197.592 32.7664C196.886 31.3111 196.534 29.6353 196.534 27.739ZM210.359 27.7721C210.359 26.3609 209.962 25.2473 209.168 24.4315C208.397 23.6156 207.448 23.2077 206.324 23.2077C205.199 23.2077 204.24 23.6156 203.446 24.4315C202.675 25.2253 202.289 26.3278 202.289 27.739C202.289 29.1502 202.675 30.2747 203.446 31.1126C204.24 31.9285 205.199 32.3364 206.324 32.3364C207.448 32.3364 208.397 31.9285 209.168 31.1126C209.962 30.2968 210.359 29.1833 210.359 27.7721ZM235.517 37.2315C233.819 37.2315 232.297 36.9559 230.952 36.4046C229.607 35.8534 228.527 35.0375 227.711 33.9571C226.917 32.8766 226.498 31.5757 226.454 30.0542H232.474C232.562 30.9142 232.86 31.5757 233.367 32.0387C233.874 32.4797 234.535 32.7002 235.351 32.7002C236.189 32.7002 236.851 32.5128 237.336 32.138C237.821 31.7411 238.063 31.2008 238.063 30.5173C238.063 29.944 237.865 29.4699 237.468 29.0951C237.093 28.7202 236.619 28.4115 236.046 28.169C235.495 27.9264 234.701 27.6508 233.664 27.3421C232.165 26.879 230.941 26.416 229.993 25.9529C229.045 25.4899 228.229 24.8063 227.546 23.9023C226.862 22.9982 226.52 21.8186 226.52 20.3633C226.52 18.2024 227.303 16.5155 228.869 15.3028C230.434 14.068 232.474 13.4506 234.987 13.4506C237.545 13.4506 239.607 14.068 241.173 15.3028C242.738 16.5155 243.576 18.2134 243.686 20.3963H237.567C237.523 19.6466 237.248 19.0623 236.74 18.6434C236.233 18.2024 235.583 17.9819 234.789 17.9819C234.105 17.9819 233.554 18.1693 233.135 18.5441C232.716 18.8969 232.507 19.4151 232.507 20.0987C232.507 20.8484 232.86 21.4327 233.565 21.8516C234.271 22.2706 235.373 22.7226 236.873 23.2077C238.372 23.7149 239.585 24.2 240.511 24.663C241.459 25.1261 242.275 25.7986 242.959 26.6806C243.642 27.5626 243.984 28.6982 243.984 30.0873C243.984 31.4103 243.642 32.612 242.959 33.6925C242.297 34.7729 241.327 35.6329 240.048 36.2723C238.769 36.9118 237.259 37.2315 235.517 37.2315ZM258.809 18.3457C260.926 18.3457 262.624 19.0513 263.903 20.4625C265.182 21.8516 265.821 23.77 265.821 26.2175V37H260.198V26.9783C260.198 25.7435 259.879 24.7843 259.239 24.1007C258.6 23.4172 257.74 23.0754 256.659 23.0754C255.579 23.0754 254.719 23.4172 254.08 24.1007C253.44 24.7843 253.12 25.7435 253.12 26.9783V37H247.465V12.5245H253.12V21.0248C253.694 20.2089 254.476 19.5584 255.469 19.0733C256.461 18.5882 257.574 18.3457 258.809 18.3457ZM278.152 37.2646C276.344 37.2646 274.713 36.8787 273.257 36.107C271.824 35.3352 270.689 34.2327 269.851 32.7995C269.035 31.3662 268.627 29.6904 268.627 27.7721C268.627 25.8758 269.046 24.211 269.884 22.7777C270.722 21.3224 271.868 20.2089 273.323 19.4372C274.779 18.6654 276.41 18.2795 278.219 18.2795C280.027 18.2795 281.658 18.6654 283.114 19.4372C284.569 20.2089 285.716 21.3224 286.553 22.7777C287.391 24.211 287.81 25.8758 287.81 27.7721C287.81 29.6684 287.38 31.3442 286.52 32.7995C285.683 34.2327 284.525 35.3352 283.048 36.107C281.592 36.8787 279.961 37.2646 278.152 37.2646ZM278.152 32.3695C279.233 32.3695 280.148 31.9726 280.898 31.1788C281.669 30.385 282.055 29.2494 282.055 27.7721C282.055 26.2947 281.68 25.1591 280.931 24.3653C280.203 23.5715 279.299 23.1746 278.219 23.1746C277.116 23.1746 276.201 23.5715 275.473 24.3653C274.746 25.1371 274.382 26.2727 274.382 27.7721C274.382 29.2494 274.735 30.385 275.44 31.1788C276.168 31.9726 277.072 32.3695 278.152 32.3695ZM296.467 21.6201C297.128 20.6058 297.955 19.812 298.947 19.2387C299.94 18.6434 301.042 18.3457 302.255 18.3457V24.3323H300.7C299.289 24.3323 298.231 24.641 297.525 25.2584C296.819 25.8537 296.467 26.9121 296.467 28.4336V37H290.811V18.5441H296.467V21.6201ZM315.244 32.2041V37H312.367C310.316 37 308.718 36.5039 307.571 35.5116C306.424 34.4973 305.851 32.8546 305.851 30.5834V23.2408H303.602V18.5441H305.851V14.0459H311.507V18.5441H315.211V23.2408H311.507V30.6496C311.507 31.2008 311.639 31.5977 311.904 31.8403C312.169 32.0828 312.61 32.2041 313.227 32.2041H315.244ZM335.792 27.4744C335.792 28.0036 335.759 28.5548 335.693 29.1281H322.893C322.981 30.2747 323.345 31.1567 323.985 31.7741C324.646 32.3695 325.451 32.6672 326.399 32.6672C327.81 32.6672 328.791 32.0718 329.343 30.8811H335.362C335.054 32.0939 334.491 33.1853 333.676 34.1555C332.882 35.1257 331.878 35.8865 330.666 36.4377C329.453 36.989 328.097 37.2646 326.597 37.2646C324.789 37.2646 323.18 36.8787 321.769 36.107C320.357 35.3352 319.255 34.2327 318.461 32.7995C317.667 31.3662 317.27 29.6904 317.27 27.7721C317.27 25.8537 317.656 24.1779 318.428 22.7447C319.222 21.3114 320.324 20.2089 321.735 19.4372C323.147 18.6654 324.767 18.2795 326.597 18.2795C328.384 18.2795 329.971 18.6544 331.36 19.4041C332.749 20.1538 333.83 21.2232 334.602 22.6124C335.395 24.0015 335.792 25.6222 335.792 27.4744ZM330.004 25.986C330.004 25.0158 329.673 24.2441 329.012 23.6708C328.35 23.0975 327.524 22.8108 326.531 22.8108C325.583 22.8108 324.778 23.0864 324.117 23.6377C323.477 24.1889 323.081 24.9717 322.926 25.986H330.004ZM350.022 18.3457C352.182 18.3457 353.902 19.0513 355.181 20.4625C356.482 21.8516 357.133 23.77 357.133 26.2175V37H351.51V26.9783C351.51 25.7435 351.19 24.7843 350.551 24.1007C349.911 23.4172 349.051 23.0754 347.971 23.0754C346.89 23.0754 346.031 23.4172 345.391 24.1007C344.752 24.7843 344.432 25.7435 344.432 26.9783V37H338.776V18.5441H344.432V20.9917C345.005 20.1758 345.777 19.5364 346.747 19.0733C347.717 18.5882 348.809 18.3457 350.022 18.3457ZM378.46 27.4744C378.46 28.0036 378.427 28.5548 378.361 29.1281H365.561C365.649 30.2747 366.013 31.1567 366.653 31.7741C367.314 32.3695 368.119 32.6672 369.067 32.6672C370.478 32.6672 371.46 32.0718 372.011 30.8811H378.03C377.722 32.0939 377.159 33.1853 376.344 34.1555C375.55 35.1257 374.547 35.8865 373.334 36.4377C372.121 36.989 370.765 37.2646 369.266 37.2646C367.457 37.2646 365.848 36.8787 364.437 36.107C363.025 35.3352 361.923 34.2327 361.129 32.7995C360.335 31.3662 359.938 29.6904 359.938 27.7721C359.938 25.8537 360.324 24.1779 361.096 22.7447C361.89 21.3114 362.992 20.2089 364.404 19.4372C365.815 18.6654 367.435 18.2795 369.266 18.2795C371.052 18.2795 372.639 18.6544 374.028 19.4041C375.417 20.1538 376.498 21.2232 377.27 22.6124C378.063 24.0015 378.46 25.6222 378.46 27.4744ZM372.672 25.986C372.672 25.0158 372.342 24.2441 371.68 23.6708C371.019 23.0975 370.192 22.8108 369.199 22.8108C368.251 22.8108 367.446 23.0864 366.785 23.6377C366.145 24.1889 365.749 24.9717 365.594 25.986H372.672ZM387.1 21.6201C387.761 20.6058 388.588 19.812 389.581 19.2387C390.573 18.6434 391.675 18.3457 392.888 18.3457V24.3323H391.334C389.922 24.3323 388.864 24.641 388.158 25.2584C387.453 25.8537 387.1 26.9121 387.1 28.4336V37H381.444V18.5441H387.1V21.6201Z" fill="#219EBC"/>
</svg>
